<?xml version="1.0" standalone="no"?>
<!DOCTYPE svg PUBLIC "-//W3C//DTD SVG 20010904//EN"
 "http://www.w3.org/TR/2001/REC-SVG-20010904/DTD/svg10.dtd">
<svg version="1.0" xmlns="http://www.w3.org/2000/svg"
 width="159.000000pt" height="159.000000pt" viewBox="0 0 159.000000 159.000000"
 preserveAspectRatio="xMidYMid meet">
<metadata>
Created by potrace 1.11, written by Peter Selinger 2001-2013
</metadata>
<g transform="translate(0.000000,159.000000) scale(0.100000,-0.100000)"
fill="#000000" stroke="none">
<path d="M698 1585 c-1 -2 -21 -6 -43 -9 -49 -8 -112 -25 -134 -36 -9 -4 -34
-15 -56 -25 -74 -32 -177 -109 -247 -185 -76 -82 -155 -226 -184 -335 -22 -83
-26 -263 -9 -350 53 -268 234 -489 484 -590 59 -24 73 -28 166 -45 105 -19
320 3 393 39 10 5 35 16 57 26 171 73 339 259 409 454 33 92 41 149 40 286 -1
128 -25 228 -79 337 -113 225 -333 389 -571 427 -57 8 -218 13 -226 6z"/>
</g>
</svg>
